G04*
G04 #@! TF.GenerationSoftware,Altium Limited,Altium Designer,23.1.1 (15)*
G04*
G04 Layer_Color=2752767*
%FSLAX44Y44*%
%MOMM*%
G71*
G04*
G04 #@! TF.SameCoordinates,3CDF7206-D262-4709-9A5B-6562F1D84354*
G04*
G04*
G04 #@! TF.FilePolarity,Positive*
G04*
G01*
G75*
%ADD23C,0.1270*%
%ADD24C,0.1693*%
D23*
X533400Y905510D02*
Y915670D01*
X543560D01*
Y905510D01*
X533400D01*
Y930910D02*
Y941070D01*
X543560D01*
Y930910D01*
X533400D01*
Y1078230D02*
Y1088390D01*
X543560D01*
Y1078230D01*
X533400D01*
Y1052830D02*
Y1062990D01*
X543560D01*
Y1052830D01*
X533400D01*
X264160Y963930D02*
Y974090D01*
X274320D01*
Y963930D01*
X264160D01*
Y989330D02*
Y999490D01*
X274320D01*
Y989330D01*
X264160D01*
X384810Y886460D02*
Y896620D01*
X394970D01*
Y886460D01*
X384810D01*
X410210D02*
Y896620D01*
X420370D01*
Y886460D01*
X410210D01*
X392430Y1125220D02*
Y1135380D01*
X402590D01*
Y1125220D01*
X392430D01*
Y1150620D02*
Y1160780D01*
X402590D01*
Y1150620D01*
X392430D01*
D24*
X546100Y1226820D02*
G03*
X546100Y1226820I-5080J0D01*
G01*
Y1176020D02*
G03*
X546100Y1176020I-5080J0D01*
G01*
Y1201420D02*
G03*
X546100Y1201420I-5080J0D01*
G01*
X443100Y1176020D02*
G03*
X443100Y1176020I-5080J0D01*
G01*
Y1201420D02*
G03*
X443100Y1201420I-5080J0D01*
G01*
Y1226820D02*
G03*
X443100Y1226820I-5080J0D01*
G01*
M02*
