G04*
G04 #@! TF.GenerationSoftware,Altium Limited,Altium Designer,23.1.1 (15)*
G04*
G04 Layer_Color=128*
%FSLAX44Y44*%
%MOMM*%
G71*
G04*
G04 #@! TF.SameCoordinates,3CDF7206-D262-4709-9A5B-6562F1D84354*
G04*
G04*
G04 #@! TF.FilePolarity,Positive*
G04*
G01*
G75*
%ADD23C,0.1270*%
D23*
X533980Y910590D02*
X542980D01*
X538480Y906090D02*
Y915090D01*
X533980Y935990D02*
X542980D01*
X538480Y931490D02*
Y940490D01*
X533980Y1083310D02*
X542980D01*
X538480Y1078810D02*
Y1087810D01*
X533980Y1057910D02*
X542980D01*
X538480Y1053410D02*
Y1062410D01*
X264740Y969010D02*
X273740D01*
X269240Y964510D02*
Y973510D01*
X264740Y994410D02*
X273740D01*
X269240Y989910D02*
Y998910D01*
X537020Y1226820D02*
X545020D01*
X541020Y1222820D02*
Y1230820D01*
X537020Y1176020D02*
X545020D01*
X541020Y1172020D02*
Y1180020D01*
X537020Y1201420D02*
X545020D01*
X541020Y1197420D02*
Y1205420D01*
X434020Y1176020D02*
X442020D01*
X438020Y1172020D02*
Y1180020D01*
X434020Y1201420D02*
X442020D01*
X438020Y1197420D02*
Y1205420D01*
X434020Y1226820D02*
X442020D01*
X438020Y1222820D02*
Y1230820D01*
X385390Y891540D02*
X394390D01*
X389890Y887040D02*
Y896040D01*
X410790Y891540D02*
X419790D01*
X415290Y887040D02*
Y896040D01*
X393010Y1130300D02*
X402010D01*
X397510Y1125800D02*
Y1134800D01*
X393010Y1155700D02*
X402010D01*
X397510Y1151200D02*
Y1160200D01*
M02*
